# xmcd CD database file generated by LOLA_Freedb v0.9beta0
# 
# Track frame offsets:
#      150
#      19055
#      33826
#      51065
#      68310
#      89425
#      110500
#      129920
#      158062
#      173045
#      188425
#      207532
#      223823
#      252276
# 
# Disc length: 3668 seconds
# 
# Revision: 7 
# Processed by: cddbd v1.5.2PL0 Copyright (c) Steve Scherf et al.
# Submitted via: LOLA_Freedb v0.9beta0
# 
DISCID=b40e520e
DTITLE=Korn - See You on the Other Side
DYEAR=2005
DGENRE=Alternative Metal
TTITLE0=Korn - Twisted Transistor
TTITLE1=Politics
TTITLE2=Hypocrites
TTITLE3=Souvenir
TTITLE4=10 or a 2-Way
TTITLE5=Throw Me Away
TTITLE6=Love Song
TTITLE7=Open Up
TTITLE8=Coming Undone
TTITLE9=Getting Off
TTITLE10=Liar
TTITLE11=For No One
TTITLE12=Seen It All
TTITLE13=Tearjerker
EXTD=YEAR: 2005
EXTT0=
EXTT1=
EXTT2=
EXTT3=
EXTT4=
EXTT5=
EXTT6=
EXTT7=
EXTT8=
EXTT9=
EXTT10=
EXTT11=
EXTT12=
EXTT13=
PLAYORDER=
